ISO-10303-21;
HEADER;
FILE_DESCRIPTION(('FreeCAD Model'),'2;1');
FILE_NAME('Open CASCADE Shape Model','2026-01-24T18:48:55',(''),(''),
  'Open CASCADE STEP processor 7.8','FreeCAD','Unknown');
FILE_SCHEMA(('AUTOMOTIVE_DESIGN { 1 0 10303 214 1 1 1 1 }'));
ENDSEC;
DATA;
#1 = APPLICATION_PROTOCOL_DEFINITION('international standard',
  'automotive_design',2000,#2);
#2 = APPLICATION_CONTEXT(
  'core data for automotive mechanical design processes');
#3 = SHAPE_DEFINITION_REPRESENTATION(#4,#10);
#4 = PRODUCT_DEFINITION_SHAPE('','',#5);
#5 = PRODUCT_DEFINITION('design','',#6,#9);
#6 = PRODUCT_DEFINITION_FORMATION('','',#7);
#7 = PRODUCT('Body','Body','',(#8));
#8 = PRODUCT_CONTEXT('',#2,'mechanical');
#9 = PRODUCT_DEFINITION_CONTEXT('part definition',#2,'design');
#10 = ADVANCED_BREP_SHAPE_REPRESENTATION('',(#11,#15),#571);
#11 = AXIS2_PLACEMENT_3D('',#12,#13,#14);
#12 = CARTESIAN_POINT('',(0.,0.,0.));
#13 = DIRECTION('',(0.,0.,1.));
#14 = DIRECTION('',(1.,0.,-0.));
#15 = MANIFOLD_SOLID_BREP('',#16);
#16 = CLOSED_SHELL('',(#17,#57,#88,#119,#170,#219,#250,#281,#312,#336,
    #360,#377,#394,#443,#474,#505,#527,#539,#551));
#17 = ADVANCED_FACE('',(#18),#52,.F.);
#18 = FACE_BOUND('',#19,.F.);
#19 = EDGE_LOOP('',(#20,#30,#38,#46));
#20 = ORIENTED_EDGE('',*,*,#21,.T.);
#21 = EDGE_CURVE('',#22,#24,#26,.T.);
#22 = VERTEX_POINT('',#23);
#23 = CARTESIAN_POINT('',(-16.285,9.3,-0.5));
#24 = VERTEX_POINT('',#25);
#25 = CARTESIAN_POINT('',(-16.285,9.3,0.));
#26 = LINE('',#27,#28);
#27 = CARTESIAN_POINT('',(-16.285,9.3,-0.5));
#28 = VECTOR('',#29,1.);
#29 = DIRECTION('',(0.,0.,1.));
#30 = ORIENTED_EDGE('',*,*,#31,.T.);
#31 = EDGE_CURVE('',#24,#32,#34,.T.);
#32 = VERTEX_POINT('',#33);
#33 = CARTESIAN_POINT('',(-16.285,-9.3,0.));
#34 = LINE('',#35,#36);
#35 = CARTESIAN_POINT('',(-16.285,9.3,0.));
#36 = VECTOR('',#37,1.);
#37 = DIRECTION('',(0.,-1.,0.));
#38 = ORIENTED_EDGE('',*,*,#39,.F.);
#39 = EDGE_CURVE('',#40,#32,#42,.T.);
#40 = VERTEX_POINT('',#41);
#41 = CARTESIAN_POINT('',(-16.285,-9.3,-0.5));
#42 = LINE('',#43,#44);
#43 = CARTESIAN_POINT('',(-16.285,-9.3,-0.5));
#44 = VECTOR('',#45,1.);
#45 = DIRECTION('',(0.,0.,1.));
#46 = ORIENTED_EDGE('',*,*,#47,.F.);
#47 = EDGE_CURVE('',#22,#40,#48,.T.);
#48 = LINE('',#49,#50);
#49 = CARTESIAN_POINT('',(-16.285,9.3,-0.5));
#50 = VECTOR('',#51,1.);
#51 = DIRECTION('',(0.,-1.,0.));
#52 = PLANE('',#53);
#53 = AXIS2_PLACEMENT_3D('',#54,#55,#56);
#54 = CARTESIAN_POINT('',(-16.285,9.3,-0.5));
#55 = DIRECTION('',(1.,0.,0.));
#56 = DIRECTION('',(0.,-1.,0.));
#57 = ADVANCED_FACE('',(#58),#83,.F.);
#58 = FACE_BOUND('',#59,.F.);
#59 = EDGE_LOOP('',(#60,#70,#76,#77));
#60 = ORIENTED_EDGE('',*,*,#61,.T.);
#61 = EDGE_CURVE('',#62,#64,#66,.T.);
#62 = VERTEX_POINT('',#63);
#63 = CARTESIAN_POINT('',(16.285,9.3,-0.5));
#64 = VERTEX_POINT('',#65);
#65 = CARTESIAN_POINT('',(16.285,9.3,0.));
#66 = LINE('',#67,#68);
#67 = CARTESIAN_POINT('',(16.285,9.3,-0.5));
#68 = VECTOR('',#69,1.);
#69 = DIRECTION('',(0.,0.,1.));
#70 = ORIENTED_EDGE('',*,*,#71,.T.);
#71 = EDGE_CURVE('',#64,#24,#72,.T.);
#72 = LINE('',#73,#74);
#73 = CARTESIAN_POINT('',(16.285,9.3,0.));
#74 = VECTOR('',#75,1.);
#75 = DIRECTION('',(-1.,0.,0.));
#76 = ORIENTED_EDGE('',*,*,#21,.F.);
#77 = ORIENTED_EDGE('',*,*,#78,.F.);
#78 = EDGE_CURVE('',#62,#22,#79,.T.);
#79 = LINE('',#80,#81);
#80 = CARTESIAN_POINT('',(16.285,9.3,-0.5));
#81 = VECTOR('',#82,1.);
#82 = DIRECTION('',(-1.,0.,0.));
#83 = PLANE('',#84);
#84 = AXIS2_PLACEMENT_3D('',#85,#86,#87);
#85 = CARTESIAN_POINT('',(16.285,9.3,-0.5));
#86 = DIRECTION('',(0.,-1.,0.));
#87 = DIRECTION('',(-1.,0.,0.));
#88 = ADVANCED_FACE('',(#89),#114,.F.);
#89 = FACE_BOUND('',#90,.F.);
#90 = EDGE_LOOP('',(#91,#92,#100,#108));
#91 = ORIENTED_EDGE('',*,*,#39,.T.);
#92 = ORIENTED_EDGE('',*,*,#93,.T.);
#93 = EDGE_CURVE('',#32,#94,#96,.T.);
#94 = VERTEX_POINT('',#95);
#95 = CARTESIAN_POINT('',(16.285,-9.3,0.));
#96 = LINE('',#97,#98);
#97 = CARTESIAN_POINT('',(-16.285,-9.3,0.));
#98 = VECTOR('',#99,1.);
#99 = DIRECTION('',(1.,0.,0.));
#100 = ORIENTED_EDGE('',*,*,#101,.F.);
#101 = EDGE_CURVE('',#102,#94,#104,.T.);
#102 = VERTEX_POINT('',#103);
#103 = CARTESIAN_POINT('',(16.285,-9.3,-0.5));
#104 = LINE('',#105,#106);
#105 = CARTESIAN_POINT('',(16.285,-9.3,-0.5));
#106 = VECTOR('',#107,1.);
#107 = DIRECTION('',(0.,0.,1.));
#108 = ORIENTED_EDGE('',*,*,#109,.F.);
#109 = EDGE_CURVE('',#40,#102,#110,.T.);
#110 = LINE('',#111,#112);
#111 = CARTESIAN_POINT('',(-16.285,-9.3,-0.5));
#112 = VECTOR('',#113,1.);
#113 = DIRECTION('',(1.,0.,0.));
#114 = PLANE('',#115);
#115 = AXIS2_PLACEMENT_3D('',#116,#117,#118);
#116 = CARTESIAN_POINT('',(-16.285,-9.3,-0.5));
#117 = DIRECTION('',(0.,1.,0.));
#118 = DIRECTION('',(1.,0.,0.));
#119 = ADVANCED_FACE('',(#120,#131),#165,.T.);
#120 = FACE_BOUND('',#121,.T.);
#121 = EDGE_LOOP('',(#122,#123,#124,#130));
#122 = ORIENTED_EDGE('',*,*,#31,.T.);
#123 = ORIENTED_EDGE('',*,*,#93,.T.);
#124 = ORIENTED_EDGE('',*,*,#125,.T.);
#125 = EDGE_CURVE('',#94,#64,#126,.T.);
#126 = LINE('',#127,#128);
#127 = CARTESIAN_POINT('',(16.285,-9.3,0.));
#128 = VECTOR('',#129,1.);
#129 = DIRECTION('',(0.,1.,0.));
#130 = ORIENTED_EDGE('',*,*,#71,.T.);
#131 = FACE_BOUND('',#132,.T.);
#132 = EDGE_LOOP('',(#133,#143,#151,#159));
#133 = ORIENTED_EDGE('',*,*,#134,.F.);
#134 = EDGE_CURVE('',#135,#137,#139,.T.);
#135 = VERTEX_POINT('',#136);
#136 = CARTESIAN_POINT('',(-13.085,7.,0.));
#137 = VERTEX_POINT('',#138);
#138 = CARTESIAN_POINT('',(-13.085,-7.,0.));
#139 = LINE('',#140,#141);
#140 = CARTESIAN_POINT('',(-13.085,7.,0.));
#141 = VECTOR('',#142,1.);
#142 = DIRECTION('',(0.,-1.,0.));
#143 = ORIENTED_EDGE('',*,*,#144,.F.);
#144 = EDGE_CURVE('',#145,#135,#147,.T.);
#145 = VERTEX_POINT('',#146);
#146 = CARTESIAN_POINT('',(8.675,7.,0.));
#147 = LINE('',#148,#149);
#148 = CARTESIAN_POINT('',(8.675,7.,0.));
#149 = VECTOR('',#150,1.);
#150 = DIRECTION('',(-1.,0.,0.));
#151 = ORIENTED_EDGE('',*,*,#152,.F.);
#152 = EDGE_CURVE('',#153,#145,#155,.T.);
#153 = VERTEX_POINT('',#154);
#154 = CARTESIAN_POINT('',(8.675,-7.,0.));
#155 = LINE('',#156,#157);
#156 = CARTESIAN_POINT('',(8.675,-7.,0.));
#157 = VECTOR('',#158,1.);
#158 = DIRECTION('',(0.,1.,0.));
#159 = ORIENTED_EDGE('',*,*,#160,.F.);
#160 = EDGE_CURVE('',#137,#153,#161,.T.);
#161 = LINE('',#162,#163);
#162 = CARTESIAN_POINT('',(-13.085,-7.,0.));
#163 = VECTOR('',#164,1.);
#164 = DIRECTION('',(1.,0.,0.));
#165 = PLANE('',#166);
#166 = AXIS2_PLACEMENT_3D('',#167,#168,#169);
#167 = CARTESIAN_POINT('',(-5.554369636585E-16,0.,0.));
#168 = DIRECTION('',(0.,0.,1.));
#169 = DIRECTION('',(1.,0.,0.));
#170 = ADVANCED_FACE('',(#171),#214,.F.);
#171 = FACE_BOUND('',#172,.F.);
#172 = EDGE_LOOP('',(#173,#181,#182,#183,#184,#192,#200,#208));
#173 = ORIENTED_EDGE('',*,*,#174,.F.);
#174 = EDGE_CURVE('',#102,#175,#177,.T.);
#175 = VERTEX_POINT('',#176);
#176 = CARTESIAN_POINT('',(16.285,-3.05,-0.5));
#177 = LINE('',#178,#179);
#178 = CARTESIAN_POINT('',(16.285,-9.3,-0.5));
#179 = VECTOR('',#180,1.);
#180 = DIRECTION('',(0.,1.,0.));
#181 = ORIENTED_EDGE('',*,*,#101,.T.);
#182 = ORIENTED_EDGE('',*,*,#125,.T.);
#183 = ORIENTED_EDGE('',*,*,#61,.F.);
#184 = ORIENTED_EDGE('',*,*,#185,.F.);
#185 = EDGE_CURVE('',#186,#62,#188,.T.);
#186 = VERTEX_POINT('',#187);
#187 = CARTESIAN_POINT('',(16.285,6.95,-0.5));
#188 = LINE('',#189,#190);
#189 = CARTESIAN_POINT('',(16.285,-9.3,-0.5));
#190 = VECTOR('',#191,1.);
#191 = DIRECTION('',(0.,1.,0.));
#192 = ORIENTED_EDGE('',*,*,#193,.T.);
#193 = EDGE_CURVE('',#186,#194,#196,.T.);
#194 = VERTEX_POINT('',#195);
#195 = CARTESIAN_POINT('',(16.285,6.95,-0.43));
#196 = LINE('',#197,#198);
#197 = CARTESIAN_POINT('',(16.285,6.95,-0.5));
#198 = VECTOR('',#199,1.);
#199 = DIRECTION('',(0.,0.,1.));
#200 = ORIENTED_EDGE('',*,*,#201,.T.);
#201 = EDGE_CURVE('',#194,#202,#204,.T.);
#202 = VERTEX_POINT('',#203);
#203 = CARTESIAN_POINT('',(16.285,-3.05,-0.43));
#204 = LINE('',#205,#206);
#205 = CARTESIAN_POINT('',(16.285,6.95,-0.43));
#206 = VECTOR('',#207,1.);
#207 = DIRECTION('',(0.,-1.,0.));
#208 = ORIENTED_EDGE('',*,*,#209,.F.);
#209 = EDGE_CURVE('',#175,#202,#210,.T.);
#210 = LINE('',#211,#212);
#211 = CARTESIAN_POINT('',(16.285,-3.05,-0.5));
#212 = VECTOR('',#213,1.);
#213 = DIRECTION('',(0.,0.,1.));
#214 = PLANE('',#215);
#215 = AXIS2_PLACEMENT_3D('',#216,#217,#218);
#216 = CARTESIAN_POINT('',(16.285,-9.3,-0.5));
#217 = DIRECTION('',(-1.,0.,0.));
#218 = DIRECTION('',(0.,1.,0.));
#219 = ADVANCED_FACE('',(#220),#245,.F.);
#220 = FACE_BOUND('',#221,.F.);
#221 = EDGE_LOOP('',(#222,#232,#238,#239));
#222 = ORIENTED_EDGE('',*,*,#223,.T.);
#223 = EDGE_CURVE('',#224,#226,#228,.T.);
#224 = VERTEX_POINT('',#225);
#225 = CARTESIAN_POINT('',(19.385,6.95,-0.5));
#226 = VERTEX_POINT('',#227);
#227 = CARTESIAN_POINT('',(19.385,6.95,-0.43));
#228 = LINE('',#229,#230);
#229 = CARTESIAN_POINT('',(19.385,6.95,-0.5));
#230 = VECTOR('',#231,1.);
#231 = DIRECTION('',(0.,0.,1.));
#232 = ORIENTED_EDGE('',*,*,#233,.T.);
#233 = EDGE_CURVE('',#226,#194,#234,.T.);
#234 = LINE('',#235,#236);
#235 = CARTESIAN_POINT('',(19.385,6.95,-0.43));
#236 = VECTOR('',#237,1.);
#237 = DIRECTION('',(-1.,0.,0.));
#238 = ORIENTED_EDGE('',*,*,#193,.F.);
#239 = ORIENTED_EDGE('',*,*,#240,.F.);
#240 = EDGE_CURVE('',#224,#186,#241,.T.);
#241 = LINE('',#242,#243);
#242 = CARTESIAN_POINT('',(19.385,6.95,-0.5));
#243 = VECTOR('',#244,1.);
#244 = DIRECTION('',(-1.,0.,0.));
#245 = PLANE('',#246);
#246 = AXIS2_PLACEMENT_3D('',#247,#248,#249);
#247 = CARTESIAN_POINT('',(19.385,6.95,-0.5));
#248 = DIRECTION('',(0.,-1.,0.));
#249 = DIRECTION('',(-1.,0.,0.));
#250 = ADVANCED_FACE('',(#251),#276,.F.);
#251 = FACE_BOUND('',#252,.F.);
#252 = EDGE_LOOP('',(#253,#254,#262,#270));
#253 = ORIENTED_EDGE('',*,*,#209,.T.);
#254 = ORIENTED_EDGE('',*,*,#255,.T.);
#255 = EDGE_CURVE('',#202,#256,#258,.T.);
#256 = VERTEX_POINT('',#257);
#257 = CARTESIAN_POINT('',(19.385,-3.05,-0.43));
#258 = LINE('',#259,#260);
#259 = CARTESIAN_POINT('',(16.285,-3.05,-0.43));
#260 = VECTOR('',#261,1.);
#261 = DIRECTION('',(1.,0.,0.));
#262 = ORIENTED_EDGE('',*,*,#263,.F.);
#263 = EDGE_CURVE('',#264,#256,#266,.T.);
#264 = VERTEX_POINT('',#265);
#265 = CARTESIAN_POINT('',(19.385,-3.05,-0.5));
#266 = LINE('',#267,#268);
#267 = CARTESIAN_POINT('',(19.385,-3.05,-0.5));
#268 = VECTOR('',#269,1.);
#269 = DIRECTION('',(0.,0.,1.));
#270 = ORIENTED_EDGE('',*,*,#271,.F.);
#271 = EDGE_CURVE('',#175,#264,#272,.T.);
#272 = LINE('',#273,#274);
#273 = CARTESIAN_POINT('',(16.285,-3.05,-0.5));
#274 = VECTOR('',#275,1.);
#275 = DIRECTION('',(1.,0.,0.));
#276 = PLANE('',#277);
#277 = AXIS2_PLACEMENT_3D('',#278,#279,#280);
#278 = CARTESIAN_POINT('',(16.285,-3.05,-0.5));
#279 = DIRECTION('',(0.,1.,0.));
#280 = DIRECTION('',(1.,0.,0.));
#281 = ADVANCED_FACE('',(#282),#307,.F.);
#282 = FACE_BOUND('',#283,.F.);
#283 = EDGE_LOOP('',(#284,#292,#300,#306));
#284 = ORIENTED_EDGE('',*,*,#285,.T.);
#285 = EDGE_CURVE('',#135,#286,#288,.T.);
#286 = VERTEX_POINT('',#287);
#287 = CARTESIAN_POINT('',(-13.085,7.,-5.E-02));
#288 = LINE('',#289,#290);
#289 = CARTESIAN_POINT('',(-13.085,7.,0.));
#290 = VECTOR('',#291,1.);
#291 = DIRECTION('',(-0.,-0.,-1.));
#292 = ORIENTED_EDGE('',*,*,#293,.T.);
#293 = EDGE_CURVE('',#286,#294,#296,.T.);
#294 = VERTEX_POINT('',#295);
#295 = CARTESIAN_POINT('',(-13.085,-7.,-5.E-02));
#296 = LINE('',#297,#298);
#297 = CARTESIAN_POINT('',(-13.085,7.,-5.E-02));
#298 = VECTOR('',#299,1.);
#299 = DIRECTION('',(0.,-1.,0.));
#300 = ORIENTED_EDGE('',*,*,#301,.F.);
#301 = EDGE_CURVE('',#137,#294,#302,.T.);
#302 = LINE('',#303,#304);
#303 = CARTESIAN_POINT('',(-13.085,-7.,0.));
#304 = VECTOR('',#305,1.);
#305 = DIRECTION('',(-0.,-0.,-1.));
#306 = ORIENTED_EDGE('',*,*,#134,.F.);
#307 = PLANE('',#308);
#308 = AXIS2_PLACEMENT_3D('',#309,#310,#311);
#309 = CARTESIAN_POINT('',(-13.085,7.,0.));
#310 = DIRECTION('',(-1.,0.,0.));
#311 = DIRECTION('',(0.,-1.,0.));
#312 = ADVANCED_FACE('',(#313),#331,.F.);
#313 = FACE_BOUND('',#314,.F.);
#314 = EDGE_LOOP('',(#315,#316,#324,#330));
#315 = ORIENTED_EDGE('',*,*,#301,.T.);
#316 = ORIENTED_EDGE('',*,*,#317,.T.);
#317 = EDGE_CURVE('',#294,#318,#320,.T.);
#318 = VERTEX_POINT('',#319);
#319 = CARTESIAN_POINT('',(8.675,-7.,-5.E-02));
#320 = LINE('',#321,#322);
#321 = CARTESIAN_POINT('',(-13.085,-7.,-5.E-02));
#322 = VECTOR('',#323,1.);
#323 = DIRECTION('',(1.,0.,0.));
#324 = ORIENTED_EDGE('',*,*,#325,.F.);
#325 = EDGE_CURVE('',#153,#318,#326,.T.);
#326 = LINE('',#327,#328);
#327 = CARTESIAN_POINT('',(8.675,-7.,0.));
#328 = VECTOR('',#329,1.);
#329 = DIRECTION('',(-0.,-0.,-1.));
#330 = ORIENTED_EDGE('',*,*,#160,.F.);
#331 = PLANE('',#332);
#332 = AXIS2_PLACEMENT_3D('',#333,#334,#335);
#333 = CARTESIAN_POINT('',(-13.085,-7.,0.));
#334 = DIRECTION('',(0.,-1.,0.));
#335 = DIRECTION('',(1.,0.,0.));
#336 = ADVANCED_FACE('',(#337),#355,.F.);
#337 = FACE_BOUND('',#338,.F.);
#338 = EDGE_LOOP('',(#339,#340,#348,#354));
#339 = ORIENTED_EDGE('',*,*,#325,.T.);
#340 = ORIENTED_EDGE('',*,*,#341,.T.);
#341 = EDGE_CURVE('',#318,#342,#344,.T.);
#342 = VERTEX_POINT('',#343);
#343 = CARTESIAN_POINT('',(8.675,7.,-5.E-02));
#344 = LINE('',#345,#346);
#345 = CARTESIAN_POINT('',(8.675,-7.,-5.E-02));
#346 = VECTOR('',#347,1.);
#347 = DIRECTION('',(0.,1.,0.));
#348 = ORIENTED_EDGE('',*,*,#349,.F.);
#349 = EDGE_CURVE('',#145,#342,#350,.T.);
#350 = LINE('',#351,#352);
#351 = CARTESIAN_POINT('',(8.675,7.,0.));
#352 = VECTOR('',#353,1.);
#353 = DIRECTION('',(-0.,-0.,-1.));
#354 = ORIENTED_EDGE('',*,*,#152,.F.);
#355 = PLANE('',#356);
#356 = AXIS2_PLACEMENT_3D('',#357,#358,#359);
#357 = CARTESIAN_POINT('',(8.675,-7.,0.));
#358 = DIRECTION('',(1.,0.,0.));
#359 = DIRECTION('',(0.,1.,0.));
#360 = ADVANCED_FACE('',(#361),#372,.F.);
#361 = FACE_BOUND('',#362,.F.);
#362 = EDGE_LOOP('',(#363,#364,#370,#371));
#363 = ORIENTED_EDGE('',*,*,#349,.T.);
#364 = ORIENTED_EDGE('',*,*,#365,.T.);
#365 = EDGE_CURVE('',#342,#286,#366,.T.);
#366 = LINE('',#367,#368);
#367 = CARTESIAN_POINT('',(8.675,7.,-5.E-02));
#368 = VECTOR('',#369,1.);
#369 = DIRECTION('',(-1.,0.,0.));
#370 = ORIENTED_EDGE('',*,*,#285,.F.);
#371 = ORIENTED_EDGE('',*,*,#144,.F.);
#372 = PLANE('',#373);
#373 = AXIS2_PLACEMENT_3D('',#374,#375,#376);
#374 = CARTESIAN_POINT('',(8.675,7.,0.));
#375 = DIRECTION('',(0.,1.,0.));
#376 = DIRECTION('',(-1.,0.,0.));
#377 = ADVANCED_FACE('',(#378),#389,.T.);
#378 = FACE_BOUND('',#379,.T.);
#379 = EDGE_LOOP('',(#380,#381,#382,#388));
#380 = ORIENTED_EDGE('',*,*,#201,.T.);
#381 = ORIENTED_EDGE('',*,*,#255,.T.);
#382 = ORIENTED_EDGE('',*,*,#383,.T.);
#383 = EDGE_CURVE('',#256,#226,#384,.T.);
#384 = LINE('',#385,#386);
#385 = CARTESIAN_POINT('',(19.385,-3.05,-0.43));
#386 = VECTOR('',#387,1.);
#387 = DIRECTION('',(0.,1.,0.));
#388 = ORIENTED_EDGE('',*,*,#233,.T.);
#389 = PLANE('',#390);
#390 = AXIS2_PLACEMENT_3D('',#391,#392,#393);
#391 = CARTESIAN_POINT('',(17.835,1.95,-0.43));
#392 = DIRECTION('',(0.,0.,1.));
#393 = DIRECTION('',(1.,0.,0.));
#394 = ADVANCED_FACE('',(#395),#438,.F.);
#395 = FACE_BOUND('',#396,.F.);
#396 = EDGE_LOOP('',(#397,#405,#413,#421,#429,#435,#436,#437));
#397 = ORIENTED_EDGE('',*,*,#398,.F.);
#398 = EDGE_CURVE('',#399,#224,#401,.T.);
#399 = VERTEX_POINT('',#400);
#400 = CARTESIAN_POINT('',(19.385,7.75,-0.5));
#401 = LINE('',#402,#403);
#402 = CARTESIAN_POINT('',(19.385,7.75,-0.5));
#403 = VECTOR('',#404,1.);
#404 = DIRECTION('',(0.,-1.,0.));
#405 = ORIENTED_EDGE('',*,*,#406,.T.);
#406 = EDGE_CURVE('',#399,#407,#409,.T.);
#407 = VERTEX_POINT('',#408);
#408 = CARTESIAN_POINT('',(19.385,7.75,-0.2));
#409 = LINE('',#410,#411);
#410 = CARTESIAN_POINT('',(19.385,7.75,-0.5));
#411 = VECTOR('',#412,1.);
#412 = DIRECTION('',(0.,0.,1.));
#413 = ORIENTED_EDGE('',*,*,#414,.T.);
#414 = EDGE_CURVE('',#407,#415,#417,.T.);
#415 = VERTEX_POINT('',#416);
#416 = CARTESIAN_POINT('',(19.385,-7.75,-0.2));
#417 = LINE('',#418,#419);
#418 = CARTESIAN_POINT('',(19.385,7.75,-0.2));
#419 = VECTOR('',#420,1.);
#420 = DIRECTION('',(0.,-1.,0.));
#421 = ORIENTED_EDGE('',*,*,#422,.F.);
#422 = EDGE_CURVE('',#423,#415,#425,.T.);
#423 = VERTEX_POINT('',#424);
#424 = CARTESIAN_POINT('',(19.385,-7.75,-0.5));
#425 = LINE('',#426,#427);
#426 = CARTESIAN_POINT('',(19.385,-7.75,-0.5));
#427 = VECTOR('',#428,1.);
#428 = DIRECTION('',(0.,0.,1.));
#429 = ORIENTED_EDGE('',*,*,#430,.F.);
#430 = EDGE_CURVE('',#264,#423,#431,.T.);
#431 = LINE('',#432,#433);
#432 = CARTESIAN_POINT('',(19.385,7.75,-0.5));
#433 = VECTOR('',#434,1.);
#434 = DIRECTION('',(0.,-1.,0.));
#435 = ORIENTED_EDGE('',*,*,#263,.T.);
#436 = ORIENTED_EDGE('',*,*,#383,.T.);
#437 = ORIENTED_EDGE('',*,*,#223,.F.);
#438 = PLANE('',#439);
#439 = AXIS2_PLACEMENT_3D('',#440,#441,#442);
#440 = CARTESIAN_POINT('',(19.385,7.75,-0.5));
#441 = DIRECTION('',(1.,0.,0.));
#442 = DIRECTION('',(0.,-1.,0.));
#443 = ADVANCED_FACE('',(#444),#469,.F.);
#444 = FACE_BOUND('',#445,.F.);
#445 = EDGE_LOOP('',(#446,#447,#455,#463));
#446 = ORIENTED_EDGE('',*,*,#422,.T.);
#447 = ORIENTED_EDGE('',*,*,#448,.T.);
#448 = EDGE_CURVE('',#415,#449,#451,.T.);
#449 = VERTEX_POINT('',#450);
#450 = CARTESIAN_POINT('',(26.085,-7.75,-0.2));
#451 = LINE('',#452,#453);
#452 = CARTESIAN_POINT('',(19.385,-7.75,-0.2));
#453 = VECTOR('',#454,1.);
#454 = DIRECTION('',(1.,0.,0.));
#455 = ORIENTED_EDGE('',*,*,#456,.F.);
#456 = EDGE_CURVE('',#457,#449,#459,.T.);
#457 = VERTEX_POINT('',#458);
#458 = CARTESIAN_POINT('',(26.085,-7.75,-0.5));
#459 = LINE('',#460,#461);
#460 = CARTESIAN_POINT('',(26.085,-7.75,-0.5));
#461 = VECTOR('',#462,1.);
#462 = DIRECTION('',(0.,0.,1.));
#463 = ORIENTED_EDGE('',*,*,#464,.F.);
#464 = EDGE_CURVE('',#423,#457,#465,.T.);
#465 = LINE('',#466,#467);
#466 = CARTESIAN_POINT('',(19.385,-7.75,-0.5));
#467 = VECTOR('',#468,1.);
#468 = DIRECTION('',(1.,0.,0.));
#469 = PLANE('',#470);
#470 = AXIS2_PLACEMENT_3D('',#471,#472,#473);
#471 = CARTESIAN_POINT('',(19.385,-7.75,-0.5));
#472 = DIRECTION('',(0.,1.,0.));
#473 = DIRECTION('',(1.,0.,0.));
#474 = ADVANCED_FACE('',(#475),#500,.F.);
#475 = FACE_BOUND('',#476,.F.);
#476 = EDGE_LOOP('',(#477,#478,#486,#494));
#477 = ORIENTED_EDGE('',*,*,#456,.T.);
#478 = ORIENTED_EDGE('',*,*,#479,.T.);
#479 = EDGE_CURVE('',#449,#480,#482,.T.);
#480 = VERTEX_POINT('',#481);
#481 = CARTESIAN_POINT('',(26.085,7.75,-0.2));
#482 = LINE('',#483,#484);
#483 = CARTESIAN_POINT('',(26.085,-7.75,-0.2));
#484 = VECTOR('',#485,1.);
#485 = DIRECTION('',(0.,1.,0.));
#486 = ORIENTED_EDGE('',*,*,#487,.F.);
#487 = EDGE_CURVE('',#488,#480,#490,.T.);
#488 = VERTEX_POINT('',#489);
#489 = CARTESIAN_POINT('',(26.085,7.75,-0.5));
#490 = LINE('',#491,#492);
#491 = CARTESIAN_POINT('',(26.085,7.75,-0.5));
#492 = VECTOR('',#493,1.);
#493 = DIRECTION('',(0.,0.,1.));
#494 = ORIENTED_EDGE('',*,*,#495,.F.);
#495 = EDGE_CURVE('',#457,#488,#496,.T.);
#496 = LINE('',#497,#498);
#497 = CARTESIAN_POINT('',(26.085,-7.75,-0.5));
#498 = VECTOR('',#499,1.);
#499 = DIRECTION('',(0.,1.,0.));
#500 = PLANE('',#501);
#501 = AXIS2_PLACEMENT_3D('',#502,#503,#504);
#502 = CARTESIAN_POINT('',(26.085,-7.75,-0.5));
#503 = DIRECTION('',(-1.,0.,0.));
#504 = DIRECTION('',(0.,1.,0.));
#505 = ADVANCED_FACE('',(#506),#522,.F.);
#506 = FACE_BOUND('',#507,.F.);
#507 = EDGE_LOOP('',(#508,#509,#515,#516));
#508 = ORIENTED_EDGE('',*,*,#487,.T.);
#509 = ORIENTED_EDGE('',*,*,#510,.T.);
#510 = EDGE_CURVE('',#480,#407,#511,.T.);
#511 = LINE('',#512,#513);
#512 = CARTESIAN_POINT('',(26.085,7.75,-0.2));
#513 = VECTOR('',#514,1.);
#514 = DIRECTION('',(-1.,0.,0.));
#515 = ORIENTED_EDGE('',*,*,#406,.F.);
#516 = ORIENTED_EDGE('',*,*,#517,.F.);
#517 = EDGE_CURVE('',#488,#399,#518,.T.);
#518 = LINE('',#519,#520);
#519 = CARTESIAN_POINT('',(26.085,7.75,-0.5));
#520 = VECTOR('',#521,1.);
#521 = DIRECTION('',(-1.,0.,0.));
#522 = PLANE('',#523);
#523 = AXIS2_PLACEMENT_3D('',#524,#525,#526);
#524 = CARTESIAN_POINT('',(26.085,7.75,-0.5));
#525 = DIRECTION('',(0.,-1.,0.));
#526 = DIRECTION('',(-1.,0.,0.));
#527 = ADVANCED_FACE('',(#528),#534,.T.);
#528 = FACE_BOUND('',#529,.T.);
#529 = EDGE_LOOP('',(#530,#531,#532,#533));
#530 = ORIENTED_EDGE('',*,*,#293,.T.);
#531 = ORIENTED_EDGE('',*,*,#317,.T.);
#532 = ORIENTED_EDGE('',*,*,#341,.T.);
#533 = ORIENTED_EDGE('',*,*,#365,.T.);
#534 = PLANE('',#535);
#535 = AXIS2_PLACEMENT_3D('',#536,#537,#538);
#536 = CARTESIAN_POINT('',(-2.205,0.,-5.E-02));
#537 = DIRECTION('',(0.,0.,1.));
#538 = DIRECTION('',(1.,0.,0.));
#539 = ADVANCED_FACE('',(#540),#546,.T.);
#540 = FACE_BOUND('',#541,.T.);
#541 = EDGE_LOOP('',(#542,#543,#544,#545));
#542 = ORIENTED_EDGE('',*,*,#414,.T.);
#543 = ORIENTED_EDGE('',*,*,#448,.T.);
#544 = ORIENTED_EDGE('',*,*,#479,.T.);
#545 = ORIENTED_EDGE('',*,*,#510,.T.);
#546 = PLANE('',#547);
#547 = AXIS2_PLACEMENT_3D('',#548,#549,#550);
#548 = CARTESIAN_POINT('',(22.735,-8.001607384686E-16,-0.2));
#549 = DIRECTION('',(0.,0.,1.));
#550 = DIRECTION('',(1.,0.,0.));
#551 = ADVANCED_FACE('',(#552),#566,.T.);
#552 = FACE_BOUND('',#553,.T.);
#553 = EDGE_LOOP('',(#554,#555,#556,#557,#558,#559,#560,#561,#562,#563,
    #564,#565));
#554 = ORIENTED_EDGE('',*,*,#47,.F.);
#555 = ORIENTED_EDGE('',*,*,#78,.F.);
#556 = ORIENTED_EDGE('',*,*,#185,.F.);
#557 = ORIENTED_EDGE('',*,*,#240,.F.);
#558 = ORIENTED_EDGE('',*,*,#398,.F.);
#559 = ORIENTED_EDGE('',*,*,#517,.F.);
#560 = ORIENTED_EDGE('',*,*,#495,.F.);
#561 = ORIENTED_EDGE('',*,*,#464,.F.);
#562 = ORIENTED_EDGE('',*,*,#430,.F.);
#563 = ORIENTED_EDGE('',*,*,#271,.F.);
#564 = ORIENTED_EDGE('',*,*,#174,.F.);
#565 = ORIENTED_EDGE('',*,*,#109,.F.);
#566 = PLANE('',#567);
#567 = AXIS2_PLACEMENT_3D('',#568,#569,#570);
#568 = CARTESIAN_POINT('',(5.741770723635,-0.202422145329,-0.5));
#569 = DIRECTION('',(-0.,-0.,-1.));
#570 = DIRECTION('',(-1.,0.,0.));
#571 = ( GEOMETRIC_REPRESENTATION_CONTEXT(3) 
GLOBAL_UNCERTAINTY_ASSIGNED_CONTEXT((#575)) GLOBAL_UNIT_ASSIGNED_CONTEXT
((#572,#573,#574)) REPRESENTATION_CONTEXT('Context #1',
  '3D Context with UNIT and UNCERTAINTY') );
#572 = ( LENGTH_UNIT() NAMED_UNIT(*) SI_UNIT(.MILLI.,.METRE.) );
#573 = ( NAMED_UNIT(*) PLANE_ANGLE_UNIT() SI_UNIT($,.RADIAN.) );
#574 = ( NAMED_UNIT(*) SI_UNIT($,.STERADIAN.) SOLID_ANGLE_UNIT() );
#575 = UNCERTAINTY_MEASURE_WITH_UNIT(LENGTH_MEASURE(1.E-07),#572,
  'distance_accuracy_value','confusion accuracy');
#576 = PRODUCT_RELATED_PRODUCT_CATEGORY('part',$,(#7));
#577 = MECHANICAL_DESIGN_GEOMETRIC_PRESENTATION_REPRESENTATION('',(#578,
    #588,#597,#606,#614,#623,#632,#641,#650,#659,#668,#677,#685,#694,
    #703,#712,#721,#729,#736),#571);
#578 = STYLED_ITEM('color',(#579),#17);
#579 = PRESENTATION_STYLE_ASSIGNMENT((#580));
#580 = SURFACE_STYLE_USAGE(.BOTH.,#581);
#581 = SURFACE_SIDE_STYLE('',(#582,#586));
#582 = SURFACE_STYLE_FILL_AREA(#583);
#583 = FILL_AREA_STYLE('',(#584));
#584 = FILL_AREA_STYLE_COLOUR('',#585);
#585 = COLOUR_RGB('',0.447058818107,0.474509808674,0.501960817233);
#586 = SURFACE_STYLE_RENDERING_WITH_PROPERTIES(.NORMAL_SHADING.,#585,(
    #587));
#587 = SURFACE_STYLE_TRANSPARENT(1.);
#588 = STYLED_ITEM('color',(#589),#57);
#589 = PRESENTATION_STYLE_ASSIGNMENT((#590));
#590 = SURFACE_STYLE_USAGE(.BOTH.,#591);
#591 = SURFACE_SIDE_STYLE('',(#592,#595));
#592 = SURFACE_STYLE_FILL_AREA(#593);
#593 = FILL_AREA_STYLE('',(#594));
#594 = FILL_AREA_STYLE_COLOUR('',#585);
#595 = SURFACE_STYLE_RENDERING_WITH_PROPERTIES(.NORMAL_SHADING.,#585,(
    #596));
#596 = SURFACE_STYLE_TRANSPARENT(1.);
#597 = STYLED_ITEM('color',(#598),#88);
#598 = PRESENTATION_STYLE_ASSIGNMENT((#599));
#599 = SURFACE_STYLE_USAGE(.BOTH.,#600);
#600 = SURFACE_SIDE_STYLE('',(#601,#604));
#601 = SURFACE_STYLE_FILL_AREA(#602);
#602 = FILL_AREA_STYLE('',(#603));
#603 = FILL_AREA_STYLE_COLOUR('',#585);
#604 = SURFACE_STYLE_RENDERING_WITH_PROPERTIES(.NORMAL_SHADING.,#585,(
    #605));
#605 = SURFACE_STYLE_TRANSPARENT(1.);
#606 = STYLED_ITEM('color',(#607),#119);
#607 = PRESENTATION_STYLE_ASSIGNMENT((#608));
#608 = SURFACE_STYLE_USAGE(.BOTH.,#609);
#609 = SURFACE_SIDE_STYLE('',(#610));
#610 = SURFACE_STYLE_FILL_AREA(#611);
#611 = FILL_AREA_STYLE('',(#612));
#612 = FILL_AREA_STYLE_COLOUR('',#613);
#613 = DRAUGHTING_PRE_DEFINED_COLOUR('white');
#614 = STYLED_ITEM('color',(#615),#170);
#615 = PRESENTATION_STYLE_ASSIGNMENT((#616));
#616 = SURFACE_STYLE_USAGE(.BOTH.,#617);
#617 = SURFACE_SIDE_STYLE('',(#618,#621));
#618 = SURFACE_STYLE_FILL_AREA(#619);
#619 = FILL_AREA_STYLE('',(#620));
#620 = FILL_AREA_STYLE_COLOUR('',#585);
#621 = SURFACE_STYLE_RENDERING_WITH_PROPERTIES(.NORMAL_SHADING.,#585,(
    #622));
#622 = SURFACE_STYLE_TRANSPARENT(1.);
#623 = STYLED_ITEM('color',(#624),#219);
#624 = PRESENTATION_STYLE_ASSIGNMENT((#625));
#625 = SURFACE_STYLE_USAGE(.BOTH.,#626);
#626 = SURFACE_SIDE_STYLE('',(#627,#630));
#627 = SURFACE_STYLE_FILL_AREA(#628);
#628 = FILL_AREA_STYLE('',(#629));
#629 = FILL_AREA_STYLE_COLOUR('',#585);
#630 = SURFACE_STYLE_RENDERING_WITH_PROPERTIES(.NORMAL_SHADING.,#585,(
    #631));
#631 = SURFACE_STYLE_TRANSPARENT(1.);
#632 = STYLED_ITEM('color',(#633),#250);
#633 = PRESENTATION_STYLE_ASSIGNMENT((#634));
#634 = SURFACE_STYLE_USAGE(.BOTH.,#635);
#635 = SURFACE_SIDE_STYLE('',(#636,#639));
#636 = SURFACE_STYLE_FILL_AREA(#637);
#637 = FILL_AREA_STYLE('',(#638));
#638 = FILL_AREA_STYLE_COLOUR('',#585);
#639 = SURFACE_STYLE_RENDERING_WITH_PROPERTIES(.NORMAL_SHADING.,#585,(
    #640));
#640 = SURFACE_STYLE_TRANSPARENT(1.);
#641 = STYLED_ITEM('color',(#642),#281);
#642 = PRESENTATION_STYLE_ASSIGNMENT((#643));
#643 = SURFACE_STYLE_USAGE(.BOTH.,#644);
#644 = SURFACE_SIDE_STYLE('',(#645,#648));
#645 = SURFACE_STYLE_FILL_AREA(#646);
#646 = FILL_AREA_STYLE('',(#647));
#647 = FILL_AREA_STYLE_COLOUR('',#585);
#648 = SURFACE_STYLE_RENDERING_WITH_PROPERTIES(.NORMAL_SHADING.,#585,(
    #649));
#649 = SURFACE_STYLE_TRANSPARENT(1.);
#650 = STYLED_ITEM('color',(#651),#312);
#651 = PRESENTATION_STYLE_ASSIGNMENT((#652));
#652 = SURFACE_STYLE_USAGE(.BOTH.,#653);
#653 = SURFACE_SIDE_STYLE('',(#654,#657));
#654 = SURFACE_STYLE_FILL_AREA(#655);
#655 = FILL_AREA_STYLE('',(#656));
#656 = FILL_AREA_STYLE_COLOUR('',#585);
#657 = SURFACE_STYLE_RENDERING_WITH_PROPERTIES(.NORMAL_SHADING.,#585,(
    #658));
#658 = SURFACE_STYLE_TRANSPARENT(1.);
#659 = STYLED_ITEM('color',(#660),#336);
#660 = PRESENTATION_STYLE_ASSIGNMENT((#661));
#661 = SURFACE_STYLE_USAGE(.BOTH.,#662);
#662 = SURFACE_SIDE_STYLE('',(#663,#666));
#663 = SURFACE_STYLE_FILL_AREA(#664);
#664 = FILL_AREA_STYLE('',(#665));
#665 = FILL_AREA_STYLE_COLOUR('',#585);
#666 = SURFACE_STYLE_RENDERING_WITH_PROPERTIES(.NORMAL_SHADING.,#585,(
    #667));
#667 = SURFACE_STYLE_TRANSPARENT(1.);
#668 = STYLED_ITEM('color',(#669),#360);
#669 = PRESENTATION_STYLE_ASSIGNMENT((#670));
#670 = SURFACE_STYLE_USAGE(.BOTH.,#671);
#671 = SURFACE_SIDE_STYLE('',(#672,#675));
#672 = SURFACE_STYLE_FILL_AREA(#673);
#673 = FILL_AREA_STYLE('',(#674));
#674 = FILL_AREA_STYLE_COLOUR('',#585);
#675 = SURFACE_STYLE_RENDERING_WITH_PROPERTIES(.NORMAL_SHADING.,#585,(
    #676));
#676 = SURFACE_STYLE_TRANSPARENT(1.);
#677 = STYLED_ITEM('color',(#678),#377);
#678 = PRESENTATION_STYLE_ASSIGNMENT((#679));
#679 = SURFACE_STYLE_USAGE(.BOTH.,#680);
#680 = SURFACE_SIDE_STYLE('',(#681));
#681 = SURFACE_STYLE_FILL_AREA(#682);
#682 = FILL_AREA_STYLE('',(#683));
#683 = FILL_AREA_STYLE_COLOUR('',#684);
#684 = COLOUR_RGB('',1.,1.,0.498039215105);
#685 = STYLED_ITEM('color',(#686),#394);
#686 = PRESENTATION_STYLE_ASSIGNMENT((#687));
#687 = SURFACE_STYLE_USAGE(.BOTH.,#688);
#688 = SURFACE_SIDE_STYLE('',(#689,#692));
#689 = SURFACE_STYLE_FILL_AREA(#690);
#690 = FILL_AREA_STYLE('',(#691));
#691 = FILL_AREA_STYLE_COLOUR('',#585);
#692 = SURFACE_STYLE_RENDERING_WITH_PROPERTIES(.NORMAL_SHADING.,#585,(
    #693));
#693 = SURFACE_STYLE_TRANSPARENT(1.);
#694 = STYLED_ITEM('color',(#695),#443);
#695 = PRESENTATION_STYLE_ASSIGNMENT((#696));
#696 = SURFACE_STYLE_USAGE(.BOTH.,#697);
#697 = SURFACE_SIDE_STYLE('',(#698,#701));
#698 = SURFACE_STYLE_FILL_AREA(#699);
#699 = FILL_AREA_STYLE('',(#700));
#700 = FILL_AREA_STYLE_COLOUR('',#585);
#701 = SURFACE_STYLE_RENDERING_WITH_PROPERTIES(.NORMAL_SHADING.,#585,(
    #702));
#702 = SURFACE_STYLE_TRANSPARENT(1.);
#703 = STYLED_ITEM('color',(#704),#474);
#704 = PRESENTATION_STYLE_ASSIGNMENT((#705));
#705 = SURFACE_STYLE_USAGE(.BOTH.,#706);
#706 = SURFACE_SIDE_STYLE('',(#707,#710));
#707 = SURFACE_STYLE_FILL_AREA(#708);
#708 = FILL_AREA_STYLE('',(#709));
#709 = FILL_AREA_STYLE_COLOUR('',#585);
#710 = SURFACE_STYLE_RENDERING_WITH_PROPERTIES(.NORMAL_SHADING.,#585,(
    #711));
#711 = SURFACE_STYLE_TRANSPARENT(1.);
#712 = STYLED_ITEM('color',(#713),#505);
#713 = PRESENTATION_STYLE_ASSIGNMENT((#714));
#714 = SURFACE_STYLE_USAGE(.BOTH.,#715);
#715 = SURFACE_SIDE_STYLE('',(#716,#719));
#716 = SURFACE_STYLE_FILL_AREA(#717);
#717 = FILL_AREA_STYLE('',(#718));
#718 = FILL_AREA_STYLE_COLOUR('',#585);
#719 = SURFACE_STYLE_RENDERING_WITH_PROPERTIES(.NORMAL_SHADING.,#585,(
    #720));
#720 = SURFACE_STYLE_TRANSPARENT(1.);
#721 = STYLED_ITEM('color',(#722),#527);
#722 = PRESENTATION_STYLE_ASSIGNMENT((#723));
#723 = SURFACE_STYLE_USAGE(.BOTH.,#724);
#724 = SURFACE_SIDE_STYLE('',(#725));
#725 = SURFACE_STYLE_FILL_AREA(#726);
#726 = FILL_AREA_STYLE('',(#727));
#727 = FILL_AREA_STYLE_COLOUR('',#728);
#728 = COLOUR_RGB('',0.494117641438,0.494117641438,0.494117641438);
#729 = STYLED_ITEM('color',(#730),#539);
#730 = PRESENTATION_STYLE_ASSIGNMENT((#731));
#731 = SURFACE_STYLE_USAGE(.BOTH.,#732);
#732 = SURFACE_SIDE_STYLE('',(#733));
#733 = SURFACE_STYLE_FILL_AREA(#734);
#734 = FILL_AREA_STYLE('',(#735));
#735 = FILL_AREA_STYLE_COLOUR('',#684);
#736 = STYLED_ITEM('color',(#737),#551);
#737 = PRESENTATION_STYLE_ASSIGNMENT((#738));
#738 = SURFACE_STYLE_USAGE(.BOTH.,#739);
#739 = SURFACE_SIDE_STYLE('',(#740));
#740 = SURFACE_STYLE_FILL_AREA(#741);
#741 = FILL_AREA_STYLE('',(#742));
#742 = FILL_AREA_STYLE_COLOUR('',#613);
ENDSEC;
END-ISO-10303-21;
